<svg aria-hidden="true" style="position: absolute; width: 0; height: 0; overflow: hidden;" version="1.1" xmlns="http://www.w3.org/2000/svg" xmlns:xlink="http://www.w3.org/1999/xlink">
<defs>
<symbol id="icon-user" viewBox="0 0 32 32">
<path d="M18 22.082v-1.649c2.203-1.241 4-4.337 4-7.432 0-4.971 0-9-6-9s-6 4.029-6 9c0 3.096 1.797 6.191 4 7.432v1.649c-6.784 0.555-12 3.888-12 7.918h28c0-4.030-5.216-7.364-12-7.918z"></path>
</symbol>
<symbol id="icon-key" viewBox="0 0 32 32">
<path d="M22 0c-5.523 0-10 4.477-10 10 0 0.626 0.058 1.238 0.168 1.832l-12.168 12.168v6c0 1.105 0.895 2 2 2h2v-2h4v-4h4v-4h4l2.595-2.595c1.063 0.385 2.209 0.595 3.405 0.595 5.523 0 10-4.477 10-10s-4.477-10-10-10zM24.996 10.004c-1.657 0-3-1.343-3-3s1.343-3 3-3 3 1.343 3 3-1.343 3-3 3z"></path>
</symbol>
<symbol id="icon-book-reference" viewBox="0 0 20 20">
<path d="M6 4h-1c-0.552 0-1-0.448-1-1s0.448-1 1-1v0h11v-1c0-0.552-0.448-1-1-1v0h-11c-1.105 0-2 0.895-2 2v0 16c0 1.1 0.9 2 2 2h12c1.105 0 2-0.895 2-2v0-13c0-0.552-0.448-1-1-1v0h-7v8l-2-2-2 2v-8z"></path>
</symbol>
<symbol id="icon-user-circle" viewBox="0 0 28 28">
<path d="M23.797 20.922c-0.406-2.922-1.594-5.516-4.25-5.875-1.375 1.5-3.359 2.453-5.547 2.453s-4.172-0.953-5.547-2.453c-2.656 0.359-3.844 2.953-4.25 5.875 2.172 3.063 5.75 5.078 9.797 5.078s7.625-2.016 9.797-5.078zM20 10c0-3.313-2.688-6-6-6s-6 2.688-6 6 2.688 6 6 6 6-2.688 6-6zM28 14c0 7.703-6.25 14-14 14-7.734 0-14-6.281-14-14 0-7.734 6.266-14 14-14s14 6.266 14 14z"></path>
</symbol>
<symbol id="icon-cancel-circle" viewBox="0 0 32 32">
<path d="M16 0c-8.837 0-16 7.163-16 16s7.163 16 16 16 16-7.163 16-16-7.163-16-16-16zM16 29c-7.18 0-13-5.82-13-13s5.82-13 13-13 13 5.82 13 13-5.82 13-13 13z"></path>
<path d="M21 8l-5 5-5-5-3 3 5 5-5 5 3 3 5-5 5 5 3-3-5-5 5-5z"></path>
</symbol>
<symbol id="icon-cross" viewBox="0 0 32 32">
<path d="M31.708 25.708c-0-0-0-0-0-0l-9.708-9.708 9.708-9.708c0-0 0-0 0-0 0.105-0.105 0.18-0.227 0.229-0.357 0.133-0.356 0.057-0.771-0.229-1.057l-4.586-4.586c-0.286-0.286-0.702-0.361-1.057-0.229-0.13 0.048-0.252 0.124-0.357 0.228 0 0-0 0-0 0l-9.708 9.708-9.708-9.708c-0-0-0-0-0-0-0.105-0.104-0.227-0.18-0.357-0.228-0.356-0.133-0.771-0.057-1.057 0.229l-4.586 4.586c-0.286 0.286-0.361 0.702-0.229 1.057 0.049 0.13 0.124 0.252 0.229 0.357 0 0 0 0 0 0l9.708 9.708-9.708 9.708c-0 0-0 0-0 0-0.104 0.105-0.18 0.227-0.229 0.357-0.133 0.355-0.057 0.771 0.229 1.057l4.586 4.586c0.286 0.286 0.702 0.361 1.057 0.229 0.13-0.049 0.252-0.124 0.357-0.229 0-0 0-0 0-0l9.708-9.708 9.708 9.708c0 0 0 0 0 0 0.105 0.105 0.227 0.18 0.357 0.229 0.356 0.133 0.771 0.057 1.057-0.229l4.586-4.586c0.286-0.286 0.362-0.702 0.229-1.057-0.049-0.13-0.124-0.252-0.229-0.357z"></path>
</symbol>
<symbol id="icon-play" viewBox="0 0 24 32">
<path d="M0 0l24 16-24 16z"></path>
</symbol>
<symbol id="icon-play-alt" viewBox="0 0 32 32">
<path d="M16 0c-8.836 0-16 7.164-16 16s7.164 16 16 16 16-7.164 16-16-7.164-16-16-16zM10 24v-16l16.008 8-16.008 8z"></path>
</symbol>
<symbol id="icon-pencil" viewBox="0 0 32 32">
<path d="M30.173 7.542l-0.314 0.314-5.726-5.729 0.313-0.313c0 0 1.371-1.813 3.321-1.813 0.859 0 1.832 0.353 2.849 1.37 3.354 3.354-0.443 6.171-0.443 6.171zM27.979 9.737l-19.499 19.506-8.48 2.757 2.756-8.485v-0.003h0.002l19.496-19.505 0.252 0.253M2.76 29.239l4.237-1.219-2.894-3.082-1.343 4.301z"></path>
</symbol>
<symbol id="icon-user-1" viewBox="0 0 48 48">
<path d="M41.689 34.59c-2.899-3.79-6.64-5.75-12.959-6.38-1.141-0.229-2-1.24-2-2.44 0-0.879 2.819-3.51 2.799-3.529 2.91-3.011 4.471-7.901 4.471-11.661 0-5.84-4.7-10.58-10.5-10.58s-10.5 4.74-10.5 10.58c0 3.78 1.52 8.7 4.46 11.71 0 0 2.81 2.601 2.81 3.479 0 1.271-0.96 2.33-2.2 2.48-6.19 0.65-9.89 2.6-12.76 6.34-0.83 1.081-1.28 3.251-1.31 4.411 0.010 0.3 0 5 0 5 0 2.21 1.79 4 4 4h31c2.21 0 4-1.79 4-4 0 0-0.010-4.7 0-5-0.029-1.16-0.48-3.33-1.311-4.41z"></path>
</symbol>
<symbol id="icon-error_outline" viewBox="0 0 24 24">
<path d="M12 20.016q3.281 0 5.648-2.367t2.367-5.648-2.367-5.648-5.648-2.367-5.648 2.367-2.367 5.648 2.367 5.648 5.648 2.367zM12 2.016q4.125 0 7.055 2.93t2.93 7.055-2.93 7.055-7.055 2.93-7.055-2.93-2.93-7.055 2.93-7.055 7.055-2.93zM11.016 6.984h1.969v6h-1.969v-6zM11.016 15h1.969v2.016h-1.969v-2.016z"></path>
</symbol>
<symbol id="icon-library_books" viewBox="0 0 24 24">
<path d="M18.984 6.984v-1.969h-9.984v1.969h9.984zM15 15v-2.016h-6v2.016h6zM18.984 11.016v-2.016h-9.984v2.016h9.984zM20.016 2.016q0.797 0 1.383 0.586t0.586 1.383v12q0 0.797-0.586 1.406t-1.383 0.609h-12q-0.797 0-1.406-0.609t-0.609-1.406v-12q0-0.797 0.609-1.383t1.406-0.586h12zM3.984 6v14.016h14.016v1.969h-14.016q-0.797 0-1.383-0.586t-0.586-1.383v-14.016h1.969z"></path>
</symbol>
<symbol id="icon-playlist_add" viewBox="0 0 24 24">
<path d="M2.016 15.984v-1.969h7.969v1.969h-7.969zM18 14.016h3.984v1.969h-3.984v4.031h-2.016v-4.031h-3.984v-1.969h3.984v-4.031h2.016v4.031zM14.016 6v2.016h-12v-2.016h12zM14.016 9.984v2.016h-12v-2.016h12z"></path>
</symbol>
<symbol id="icon-playlist_play" viewBox="0 0 24 24">
<path d="M14.016 14.016l4.969 3-4.969 3v-6zM3.984 14.016h8.016v1.969h-8.016v-1.969zM3.984 6h12v2.016h-12v-2.016zM3.984 9.984h12v2.016h-12v-2.016z"></path>
</symbol>
<symbol id="icon-add_circle_outline" viewBox="0 0 24 24">
<path d="M12 20.016q3.281 0 5.648-2.367t2.367-5.648-2.367-5.648-5.648-2.367-5.648 2.367-2.367 5.648 2.367 5.648 5.648 2.367zM12 2.016q4.125 0 7.055 2.93t2.93 7.055-2.93 7.055-7.055 2.93-7.055-2.93-2.93-7.055 2.93-7.055 7.055-2.93zM12.984 6.984v4.031h4.031v1.969h-4.031v4.031h-1.969v-4.031h-4.031v-1.969h4.031v-4.031h1.969z"></path>
</symbol>
<symbol id="icon-clear" viewBox="0 0 24 24">
<path d="M18.984 6.422l-5.578 5.578 5.578 5.578-1.406 1.406-5.578-5.578-5.578 5.578-1.406-1.406 5.578-5.578-5.578-5.578 1.406-1.406 5.578 5.578 5.578-5.578z"></path>
</symbol>
<symbol id="icon-create" viewBox="0 0 24 24">
<path d="M20.719 7.031l-1.828 1.828-3.75-3.75 1.828-1.828q0.281-0.281 0.703-0.281t0.703 0.281l2.344 2.344q0.281 0.281 0.281 0.703t-0.281 0.703zM3 17.25l11.063-11.063 3.75 3.75-11.063 11.063h-3.75v-3.75z"></path>
</symbol>
<symbol id="icon-keyboard_arrow_down" viewBox="0 0 24 24">
<path d="M7.406 8.578l4.594 4.594 4.594-4.594 1.406 1.406-6 6-6-6z"></path>
</symbol>
<symbol id="icon-keyboard_arrow_left" viewBox="0 0 24 24">
<path d="M15.422 16.594l-1.406 1.406-6-6 6-6 1.406 1.406-4.594 4.594z"></path>
</symbol>
<symbol id="icon-keyboard_arrow_right" viewBox="0 0 24 24">
<path d="M8.578 16.594l4.594-4.594-4.594-4.594 1.406-1.406 6 6-6 6z"></path>
</symbol>
<symbol id="icon-keyboard_arrow_up" viewBox="0 0 24 24">
<path d="M7.406 15.422l-1.406-1.406 6-6 6 6-1.406 1.406-4.594-4.594z"></path>
</symbol>
<symbol id="icon-keyboard_backspace" viewBox="0 0 24 24">
<path d="M21 11.016v1.969h-14.156l3.563 3.609-1.406 1.406-6-6 6-6 1.406 1.406-3.563 3.609h14.156z"></path>
</symbol>
<symbol id="icon-school" viewBox="0 0 24 24">
<path d="M12 3l11.016 6v8.016h-2.016v-6.938l-9 4.922-11.016-6zM5.016 13.172l6.984 3.844 6.984-3.844v4.031l-6.984 3.797-6.984-3.797v-4.031z"></path>
</symbol>
<symbol id="icon-exit_to_app" viewBox="0 0 24 24">
<path d="M18.984 3q0.797 0 1.406 0.609t0.609 1.406v13.969q0 0.797-0.609 1.406t-1.406 0.609h-13.969q-0.844 0-1.43-0.586t-0.586-1.43v-3.984h2.016v3.984h13.969v-13.969h-13.969v3.984h-2.016v-3.984q0-0.844 0.586-1.43t1.43-0.586h13.969zM10.078 15.609l2.578-2.625h-9.656v-1.969h9.656l-2.578-2.625 1.406-1.406 5.016 5.016-5.016 5.016z"></path>
</symbol>
<symbol id="icon-power_settings_new" viewBox="0 0 24 24">
<path d="M17.813 5.156q3.188 2.719 3.188 6.844 0 3.75-2.625 6.375t-6.375 2.625-6.375-2.625-2.625-6.375q0-1.688 0.938-3.703t2.25-3.141l1.406 1.406q-1.078 0.891-1.828 2.484t-0.75 2.953q0 2.906 2.039 4.945t4.945 2.039 4.945-2.039 2.039-4.945q0-1.359-0.75-2.953t-1.828-2.438zM12.984 3v9.984h-1.969v-9.984h1.969z"></path>
</symbol>
<symbol id="icon-menu_book" viewBox="0 0 24 24">
<path d="M17.484 14.344q1.219 0 2.531 0.234v1.5q-0.938-0.234-2.531-0.234-2.813 0-4.5 0.984v-1.688q1.781-0.797 4.5-0.797zM12.984 12.469q1.969-0.797 4.5-0.797 1.219 0 2.531 0.234v1.5q-0.938-0.234-2.531-0.234-2.813 0-4.5 0.984v-1.688zM17.484 10.5q-2.813 0-4.5 0.984v-1.641q1.875-0.844 4.5-0.844 1.219 0 2.531 0.234v1.547q-1.125-0.281-2.531-0.281zM21 18.516v-11.531q-1.547-0.469-3.516-0.469-3.047 0-5.484 1.5v11.484q2.438-1.5 5.484-1.5 1.828 0 3.516 0.516zM17.484 4.5q3.563 0 5.531 1.5v14.578q0 0.188-0.164 0.352t-0.352 0.164q-0.141 0-0.234-0.047-1.922-1.031-4.781-1.031-3.047 0-5.484 1.5-2.016-1.5-5.484-1.5-2.531 0-4.781 1.078-0.047 0-0.117 0.023t-0.117 0.023q-0.188 0-0.352-0.141t-0.164-0.328v-14.672q2.016-1.5 5.531-1.5 3.469 0 5.484 1.5 2.016-1.5 5.484-1.5z"></path>
</symbol>
<symbol id="icon-group-outline" viewBox="0 0 24 24">
<path d="M12 14c2.764 0 5-2.238 5-5s-2.236-5-5-5-5 2.238-5 5 2.236 5 5 5zM12 6c1.654 0 3 1.346 3 3s-1.346 3-3 3-3-1.346-3-3 1.346-3 3-3z"></path>
<path d="M20 15c1.381 0 2.5-1.117 2.5-2.5 0-1.381-1.119-2.5-2.5-2.5s-2.5 1.119-2.5 2.5c0 1.383 1.118 2.5 2.5 2.5zM20 11c0.827 0 1.5 0.673 1.5 1.5s-0.673 1.5-1.5 1.5-1.5-0.673-1.5-1.5 0.673-1.5 1.5-1.5z"></path>
<path d="M20 15.59c-1.331 0-2.332 0.406-2.917 0.969-1.115-0.918-2.878-1.559-5.083-1.559-2.266 0-3.995 0.648-5.092 1.564-0.596-0.565-1.608-0.975-2.908-0.975-2.188 0-3.5 1.091-3.5 2.183 0 0.545 1.312 1.092 3.5 1.092 0.604 0 1.146-0.051 1.623-0.133-0.010 0.090-0.040 0.18-0.040 0.27 0 1 2.405 2 6.417 2 3.762 0 6.417-1 6.417-2 0-0.085-0.011-0.17-0.021-0.255 0.463 0.073 0.996 0.118 1.604 0.118 2.051 0 3.5-0.547 3.5-1.092 0-1.092-1.373-2.182-3.5-2.182zM4 17.863c-1.309 0-2.068-0.207-2.417-0.354 0.239-0.405 1.003-0.92 2.417-0.92 1.107 0 1.837 0.351 2.208 0.706-0.084 0.114-0.169 0.227-0.235 0.344-0.452 0.119-1.108 0.224-1.973 0.224zM12 19c-2.163 0-3.501-0.312-4.184-0.561 0.521-0.678 1.918-1.439 4.184-1.439 2.169 0 3.59 0.761 4.148 1.425-0.755 0.27-2.162 0.575-4.148 0.575zM20 17.863c-0.914 0-1.546-0.103-1.973-0.213-0.072-0.127-0.155-0.252-0.248-0.375 0.356-0.345 1.071-0.685 2.221-0.685 1.324 0 2.141 0.501 2.404 0.911-0.39 0.163-1.205 0.362-2.404 0.362z"></path>
<path d="M4 15c1.381 0 2.5-1.119 2.5-2.5 0-1.379-1.119-2.5-2.5-2.5s-2.5 1.121-2.5 2.5c0 1.381 1.118 2.5 2.5 2.5zM4 11c0.827 0 1.5 0.673 1.5 1.5s-0.673 1.5-1.5 1.5-1.5-0.673-1.5-1.5 0.673-1.5 1.5-1.5z"></path>
</symbol>
<symbol id="icon-log-out" viewBox="0 0 24 24">
<path d="M9 20h-4c-0.276 0-0.525-0.111-0.707-0.293s-0.293-0.431-0.293-0.707v-14c0-0.276 0.111-0.525 0.293-0.707s0.431-0.293 0.707-0.293h4c0.552 0 1-0.448 1-1s-0.448-1-1-1h-4c-0.828 0-1.58 0.337-2.121 0.879s-0.879 1.293-0.879 2.121v14c0 0.828 0.337 1.58 0.879 2.121s1.293 0.879 2.121 0.879h4c0.552 0 1-0.448 1-1s-0.448-1-1-1zM18.586 11h-9.586c-0.552 0-1 0.448-1 1s0.448 1 1 1h9.586l-3.293 3.293c-0.391 0.391-0.391 1.024 0 1.414s1.024 0.391 1.414 0l5-5c0.092-0.092 0.166-0.202 0.217-0.324 0.15-0.362 0.078-0.795-0.217-1.090l-5-5c-0.391-0.391-1.024-0.391-1.414 0s-0.391 1.024 0 1.414z"></path>
</symbol>
<symbol id="icon-cancel" viewBox="0 0 32 32">
<path d="M16 29c-7.18 0-13-5.82-13-13s5.82-13 13-13 13 5.82 13 13-5.82 13-13 13zM21.961 12.209c0.244-0.244 0.244-0.641 0-0.885l-1.328-1.327c-0.244-0.244-0.641-0.244-0.885 0l-3.761 3.761-3.761-3.761c-0.244-0.244-0.641-0.244-0.885 0l-1.328 1.327c-0.244 0.244-0.244 0.641 0 0.885l3.762 3.762-3.762 3.76c-0.244 0.244-0.244 0.641 0 0.885l1.328 1.328c0.244 0.244 0.641 0.244 0.885 0l3.761-3.762 3.761 3.762c0.244 0.244 0.641 0.244 0.885 0l1.328-1.328c0.244-0.244 0.244-0.641 0-0.885l-3.762-3.76 3.762-3.762z"></path>
</symbol>
<symbol id="icon-cancel1" viewBox="0 0 32 32">
<path d="M16 29c-7.18 0-13-5.82-13-13s5.82-13 13-13 13 5.82 13 13-5.82 13-13 13zM16 6c-5.522 0-10 4.478-10 10s4.478 10 10 10c5.523 0 10-4.478 10-10s-4.477-10-10-10zM20.537 19.535l-1.014 1.014c-0.186 0.186-0.488 0.186-0.675 0l-2.87-2.87-2.87 2.87c-0.187 0.186-0.488 0.186-0.675 0l-1.014-1.014c-0.186-0.186-0.186-0.488 0-0.675l2.871-2.869-2.871-2.87c-0.186-0.187-0.186-0.489 0-0.676l1.014-1.013c0.187-0.187 0.488-0.187 0.675 0l2.87 2.87 2.87-2.87c0.187-0.187 0.489-0.187 0.675 0l1.014 1.013c0.186 0.187 0.186 0.489 0 0.676l-2.871 2.87 2.871 2.869c0.186 0.187 0.186 0.49 0 0.675z"></path>
</symbol>
<symbol id="icon-plus" viewBox="0 0 32 32">
<path d="M15.5 29.5c-7.18 0-13-5.82-13-13s5.82-13 13-13 13 5.82 13 13-5.82 13-13 13zM21.938 15.938c0-0.552-0.448-1-1-1h-4v-4c0-0.552-0.447-1-1-1h-1c-0.553 0-1 0.448-1 1v4h-4c-0.553 0-1 0.448-1 1v1c0 0.553 0.447 1 1 1h4v4c0 0.553 0.447 1 1 1h1c0.553 0 1-0.447 1-1v-4h4c0.552 0 1-0.447 1-1v-1z"></path>
</symbol>
<symbol id="icon-cancel2" viewBox="0 0 32 32">
<path d="M19.587 16.001l6.096 6.096c0.396 0.396 0.396 1.039 0 1.435l-2.151 2.151c-0.396 0.396-1.038 0.396-1.435 0l-6.097-6.096-6.097 6.096c-0.396 0.396-1.038 0.396-1.434 0l-2.152-2.151c-0.396-0.396-0.396-1.038 0-1.435l6.097-6.096-6.097-6.097c-0.396-0.396-0.396-1.039 0-1.435l2.153-2.151c0.396-0.396 1.038-0.396 1.434 0l6.096 6.097 6.097-6.097c0.396-0.396 1.038-0.396 1.435 0l2.151 2.152c0.396 0.396 0.396 1.038 0 1.435l-6.096 6.096z"></path>
</symbol>
<symbol id="icon-archive" viewBox="0 0 32 32">
<path d="M13.070 5.202l-5.796-1.553c-0.533-0.143-1.081 0.174-1.224 0.707l-5.953 22.216c-0.143 0.534 0.174 1.082 0.708 1.226l5.795 1.553c0.533 0.143 1.082-0.174 1.225-0.707l5.953-22.217c0.142-0.533-0.174-1.082-0.708-1.225zM7.78 24.943c-0.429 1.601-2.073 2.55-3.674 2.121s-2.55-2.073-2.121-3.674 2.073-2.551 3.674-2.121c1.601 0.429 2.55 2.074 2.121 3.674zM8.929 20.657l-5.795-1.553 3.105-11.591 5.796 1.554-3.106 11.59zM18.938 23c-0.829 0-1.5 0.672-1.5 1.5s0.671 1.5 1.5 1.5c0.828 0 1.5-0.672 1.5-1.5s-0.672-1.5-1.5-1.5zM10.811 9.773l-3.865-1.035-0.258 0.966 3.864 1.035 0.259-0.966zM10.033 12.671l0.26-0.966-3.864-1.035-0.259 0.966 3.863 1.035zM5.255 22.778c-0.8-0.215-1.623 0.261-1.837 1.061-0.215 0.801 0.26 1.623 1.061 1.837 0.8 0.215 1.623-0.26 1.837-1.061s-0.261-1.622-1.061-1.837zM29.938 9h-4v1h4v-1zM29.938 13h-4v1h4v-1zM29.938 11h-4v1h4v-1zM27.938 23c-0.829 0-1.5 0.672-1.5 1.5s0.671 1.5 1.5 1.5c0.828 0 1.5-0.672 1.5-1.5s-0.672-1.5-1.5-1.5zM30.938 4h-6c-0.553 0-1 0.447-1 1v23c0 0.552 0.447 1 1 1h6c0.552 0 1-0.448 1-1v-23c0-0.553-0.449-1-1-1zM27.938 27.5c-1.657 0-3-1.344-3-3 0-1.657 1.343-3 3-3 1.656 0 3 1.343 3 3 0 1.656-1.344 3-3 3zM30.938 20h-6v-12h6v12zM20.938 9h-4v1h4v-1zM20.938 13h-4v1h4v-1zM21.938 4h-6c-0.553 0-1 0.447-1 1v23c0 0.552 0.447 1 1 1h6c0.552 0 1-0.448 1-1v-23c0-0.553-0.449-1-1-1zM18.938 27.438c-1.657 0-3-1.344-3-3 0-1.657 1.343-3 3-3 1.656 0 3 1.343 3 3 0 1.656-1.344 3-3 3zM21.938 20h-6v-12h6v12zM20.938 11h-4v1h4v-1zM5.652 13.567l3.863 1.035 0.26-0.966-3.864-1.035-0.259 0.966z"></path>
</symbol>
<symbol id="icon-pencil1" viewBox="0 0 32 32">
<path d="M5.582 20.054l14.886-14.886 6.369 6.369-14.886 14.886-6.369-6.369zM21.153 8.758l-0.698-0.697-11.981 11.98 0.698 0.698 11.981-11.981zM22.549 10.154l-0.698-0.698-11.981 11.982 0.697 0.697 11.982-11.981zM23.945 11.55l-0.698-0.698-11.981 11.981 0.698 0.698 11.981-11.981zM23.319 2.356c0.781-0.783 2.045-0.788 2.82-0.013l3.512 3.512c0.775 0.775 0.77 2.038-0.012 2.82l-2.17 2.17-6.32-6.32 2.17-2.169zM5.092 20.883l6.030 6.030-5.284 1.877-2.623-2.623 1.877-5.284zM4.837 29.117l-3.066 1.117 1.117-3.066 1.949 1.949z"></path>
</symbol>
<symbol id="icon-switch" viewBox="0 0 32 32">
<path d="M15.5 31.062c-6.904 0-12.5-5.597-12.5-12.5 0-5.315 3.323-9.844 8-11.651v4.449c-2.399 1.503-4 4.162-4 7.202 0 4.694 3.806 8.5 8.5 8.5s8.5-3.806 8.5-8.5c0-2.596-1.166-4.915-3-6.475v-4.736c4.143 2.036 7 6.284 7 11.212 0 6.903-5.597 12.499-12.5 12.499zM16 17.062c-1.104 0-2-0.896-2-2v-11.124c0-1.104 0.896-2 2-2s2 0.896 2 2v11.125c0 1.104-0.896 1.999-2 1.999z"></path>
</symbol>
<symbol id="icon-user1" viewBox="0 0 20 28">
<path d="M20 21.859c0 2.281-1.5 4.141-3.328 4.141h-13.344c-1.828 0-3.328-1.859-3.328-4.141 0-4.109 1.016-8.859 5.109-8.859 1.266 1.234 2.984 2 4.891 2s3.625-0.766 4.891-2c4.094 0 5.109 4.75 5.109 8.859zM16 8c0 3.313-2.688 6-6 6s-6-2.688-6-6 2.688-6 6-6 6 2.688 6 6z"></path>
</symbol>
<symbol id="icon-power-off" viewBox="0 0 24 28">
<path d="M24 14c0 6.609-5.391 12-12 12s-12-5.391-12-12c0-3.797 1.75-7.297 4.797-9.578 0.891-0.672 2.141-0.5 2.797 0.391 0.672 0.875 0.484 2.141-0.391 2.797-2.031 1.531-3.203 3.859-3.203 6.391 0 4.406 3.594 8 8 8s8-3.594 8-8c0-2.531-1.172-4.859-3.203-6.391-0.875-0.656-1.062-1.922-0.391-2.797 0.656-0.891 1.922-1.062 2.797-0.391 3.047 2.281 4.797 5.781 4.797 9.578zM14 2v10c0 1.094-0.906 2-2 2s-2-0.906-2-2v-10c0-1.094 0.906-2 2-2s2 0.906 2 2z"></path>
</symbol>
<symbol id="icon-pencil2" viewBox="0 0 24 28">
<path d="M5.672 24l1.422-1.422-3.672-3.672-1.422 1.422v1.672h2v2h1.672zM13.844 9.5c0-0.203-0.141-0.344-0.344-0.344-0.094 0-0.187 0.031-0.266 0.109l-8.469 8.469c-0.078 0.078-0.109 0.172-0.109 0.266 0 0.203 0.141 0.344 0.344 0.344 0.094 0 0.187-0.031 0.266-0.109l8.469-8.469c0.078-0.078 0.109-0.172 0.109-0.266zM13 6.5l6.5 6.5-13 13h-6.5v-6.5zM23.672 8c0 0.531-0.219 1.047-0.578 1.406l-2.594 2.594-6.5-6.5 2.594-2.578c0.359-0.375 0.875-0.594 1.406-0.594s1.047 0.219 1.422 0.594l3.672 3.656c0.359 0.375 0.578 0.891 0.578 1.422z"></path>
</symbol>
<symbol id="icon-edit" viewBox="0 0 28 28">
<path d="M13.875 18.5l1.813-1.813-2.375-2.375-1.813 1.813v0.875h1.5v1.5h0.875zM20.75 7.25c-0.141-0.141-0.375-0.125-0.516 0.016l-5.469 5.469c-0.141 0.141-0.156 0.375-0.016 0.516s0.375 0.125 0.516-0.016l5.469-5.469c0.141-0.141 0.156-0.375 0.016-0.516zM22 16.531v2.969c0 2.484-2.016 4.5-4.5 4.5h-13c-2.484 0-4.5-2.016-4.5-4.5v-13c0-2.484 2.016-4.5 4.5-4.5h13c0.625 0 1.25 0.125 1.828 0.391 0.141 0.063 0.25 0.203 0.281 0.359 0.031 0.172-0.016 0.328-0.141 0.453l-0.766 0.766c-0.141 0.141-0.328 0.187-0.5 0.125-0.234-0.063-0.469-0.094-0.703-0.094h-13c-1.375 0-2.5 1.125-2.5 2.5v13c0 1.375 1.125 2.5 2.5 2.5h13c1.375 0 2.5-1.125 2.5-2.5v-1.969c0-0.125 0.047-0.25 0.141-0.344l1-1c0.156-0.156 0.359-0.187 0.547-0.109s0.313 0.25 0.313 0.453zM20.5 5l4.5 4.5-10.5 10.5h-4.5v-4.5zM27.438 7.063l-1.437 1.437-4.5-4.5 1.437-1.437c0.578-0.578 1.547-0.578 2.125 0l2.375 2.375c0.578 0.578 0.578 1.547 0 2.125z"></path>
</symbol>
<symbol id="icon-group" viewBox="0 0 30 28">
<path d="M9.266 14c-1.625 0.047-3.094 0.75-4.141 2h-2.094c-1.563 0-3.031-0.75-3.031-2.484 0-1.266-0.047-5.516 1.937-5.516 0.328 0 1.953 1.328 4.062 1.328 0.719 0 1.406-0.125 2.078-0.359-0.047 0.344-0.078 0.688-0.078 1.031 0 1.422 0.453 2.828 1.266 4zM26 23.953c0 2.531-1.672 4.047-4.172 4.047h-13.656c-2.5 0-4.172-1.516-4.172-4.047 0-3.531 0.828-8.953 5.406-8.953 0.531 0 2.469 2.172 5.594 2.172s5.063-2.172 5.594-2.172c4.578 0 5.406 5.422 5.406 8.953zM10 4c0 2.203-1.797 4-4 4s-4-1.797-4-4 1.797-4 4-4 4 1.797 4 4zM21 10c0 3.313-2.688 6-6 6s-6-2.688-6-6 2.688-6 6-6 6 2.688 6 6zM30 13.516c0 1.734-1.469 2.484-3.031 2.484h-2.094c-1.047-1.25-2.516-1.953-4.141-2 0.812-1.172 1.266-2.578 1.266-4 0-0.344-0.031-0.688-0.078-1.031 0.672 0.234 1.359 0.359 2.078 0.359 2.109 0 3.734-1.328 4.062-1.328 1.984 0 1.937 4.25 1.937 5.516zM28 4c0 2.203-1.797 4-4 4s-4-1.797-4-4 1.797-4 4-4 4 1.797 4 4z"></path>
</symbol>
<symbol id="icon-user-circle" viewBox="0 0 28 28">
<path d="M23.797 20.922c-0.406-2.922-1.594-5.516-4.25-5.875-1.375 1.5-3.359 2.453-5.547 2.453s-4.172-0.953-5.547-2.453c-2.656 0.359-3.844 2.953-4.25 5.875 2.172 3.063 5.75 5.078 9.797 5.078s7.625-2.016 9.797-5.078zM20 10c0-3.313-2.688-6-6-6s-6 2.688-6 6 2.688 6 6 6 6-2.688 6-6zM28 14c0 7.703-6.25 14-14 14-7.734 0-14-6.281-14-14 0-7.734 6.266-14 14-14s14 6.266 14 14z"></path>
</symbol>
<symbol id="icon-user-circle-o" viewBox="0 0 28 28">
<path d="M14 0c7.734 0 14 6.266 14 14 0 7.688-6.234 14-14 14-7.75 0-14-6.297-14-14 0-7.734 6.266-14 14-14zM23.672 21.109c1.453-2 2.328-4.453 2.328-7.109 0-6.609-5.391-12-12-12s-12 5.391-12 12c0 2.656 0.875 5.109 2.328 7.109 0.562-2.797 1.922-5.109 4.781-5.109 1.266 1.234 2.984 2 4.891 2s3.625-0.766 4.891-2c2.859 0 4.219 2.312 4.781 5.109zM20 11c0-3.313-2.688-6-6-6s-6 2.688-6 6 2.688 6 6 6 6-2.688 6-6z"></path>
</symbol>
<symbol id="icon-checkmark-outline" viewBox="0 0 20 20">
<path d="M2.93 17.070c-1.884-1.821-3.053-4.37-3.053-7.193 0-5.523 4.477-10 10-10 2.823 0 5.372 1.169 7.19 3.050l0.003 0.003c1.737 1.796 2.807 4.247 2.807 6.947 0 5.523-4.477 10-10 10-2.7 0-5.151-1.070-6.95-2.81l0.003 0.003zM15.66 15.66c1.449-1.449 2.344-3.45 2.344-5.66 0-4.421-3.584-8.004-8.004-8.004-2.21 0-4.211 0.896-5.66 2.344v0c-1.449 1.449-2.344 3.45-2.344 5.66 0 4.421 3.584 8.004 8.004 8.004 2.21 0 4.211-0.896 5.66-2.344v0zM6.7 9.29l2.3 2.31 4.3-4.3 1.4 1.42-5.7 5.68-3.7-3.7 1.4-1.42z"></path>
</symbol>
<symbol id="icon-cheveron-outline-down" viewBox="0 0 20 20">
<path d="M20 10c0 5.523-4.477 10-10 10s-10-4.477-10-10v0c0-5.523 4.477-10 10-10s10 4.477 10 10v0zM10 2c-4.418 0-8 3.582-8 8s3.582 8 8 8v0c4.418 0 8-3.582 8-8s-3.582-8-8-8v0zM9.3 12.54l-3.55-3.54 1.41-1.41 2.84 2.81 2.83-2.82 1.41 1.42-4.24 4.24-0.7-0.7z"></path>
</symbol>
<symbol id="icon-cheveron-outline-left" viewBox="0 0 20 20">
<path d="M10 20c-5.523 0-10-4.477-10-10s4.477-10 10-10v0c5.523 0 10 4.477 10 10s-4.477 10-10 10v0zM18 10c0-4.418-3.582-8-8-8s-8 3.582-8 8v0c0 4.418 3.582 8 8 8s8-3.582 8-8v0zM7.46 9.3l3.54-3.55 1.41 1.41-2.81 2.84 2.82 2.83-1.42 1.41-4.24-4.24 0.7-0.7z"></path>
</symbol>
<symbol id="icon-cheveron-outline-right" viewBox="0 0 20 20">
<path d="M10 0c5.523 0 10 4.477 10 10s-4.477 10-10 10v0c-5.523 0-10-4.477-10-10s4.477-10 10-10v0zM2 10c0 4.418 3.582 8 8 8s8-3.582 8-8v0c0-4.418-3.582-8-8-8s-8 3.582-8 8v0zM12.54 10.7l-3.54 3.55-1.41-1.41 2.81-2.84-2.8-2.83 1.4-1.41 4.24 4.24-0.7 0.7z"></path>
</symbol>
<symbol id="icon-cheveron-outline-up" viewBox="0 0 20 20">
<path d="M0 10c0-5.523 4.477-10 10-10s10 4.477 10 10v0c0 5.523-4.477 10-10 10s-10-4.477-10-10v0zM10 18c4.418 0 8-3.582 8-8s-3.582-8-8-8v0c-4.418 0-8 3.582-8 8s3.582 8 8 8v0zM10.7 7.46l3.55 3.54-1.41 1.41-2.84-2.81-2.83 2.8-1.41-1.4 4.24-4.24 0.7 0.7z"></path>
</symbol>
<symbol id="icon-close" viewBox="0 0 20 20">
<path d="M10 8.586l-7.071-7.071-1.414 1.414 7.071 7.071-7.071 7.071 1.414 1.414 7.071-7.071 7.071 7.071 1.414-1.414-7.071-7.071 7.071-7.071-1.414-1.414-7.071 7.071z"></path>
</symbol>
<symbol id="icon-close-outline" viewBox="0 0 20 20">
<path d="M2.93 17.070c-1.884-1.821-3.053-4.37-3.053-7.193 0-5.523 4.477-10 10-10 2.823 0 5.372 1.169 7.19 3.050l0.003 0.003c1.737 1.796 2.807 4.247 2.807 6.947 0 5.523-4.477 10-10 10-2.7 0-5.151-1.070-6.95-2.81l0.003 0.003zM4.34 15.66c1.449 1.449 3.45 2.344 5.66 2.344 4.421 0 8.004-3.584 8.004-8.004 0-2.21-0.896-4.211-2.344-5.66v0c-1.449-1.449-3.45-2.344-5.66-2.344-4.421 0-8.004 3.584-8.004 8.004 0 2.21 0.896 4.211 2.344 5.66v0zM14.24 7.17l-2.83 2.83 2.83 2.83-1.41 1.41-2.83-2.83-2.83 2.83-1.41-1.41 2.83-2.83-2.83-2.83 1.41-1.41 2.83 2.83 2.83-2.83 1.41 1.41z"></path>
</symbol>
<symbol id="icon-close-solid" viewBox="0 0 20 20">
<path d="M2.93 17.070c-1.884-1.821-3.053-4.37-3.053-7.193 0-5.523 4.477-10 10-10 2.823 0 5.372 1.169 7.19 3.050l0.003 0.003c1.737 1.796 2.807 4.247 2.807 6.947 0 5.523-4.477 10-10 10-2.7 0-5.151-1.070-6.95-2.81l0.003 0.003zM11.4 10l2.83-2.83-1.41-1.41-2.82 2.83-2.83-2.83-1.41 1.41 2.83 2.83-2.83 2.83 1.41 1.41 2.83-2.83 2.83 2.83 1.41-1.41-2.83-2.83z"></path>
</symbol>
<symbol id="icon-list2" viewBox="0 0 32 32">
<path d="M12 2h20v4h-20v-4zM12 14h20v4h-20v-4zM12 26h20v4h-20v-4zM0 4c0-2.209 1.791-4 4-4s4 1.791 4 4c0 2.209-1.791 4-4 4s-4-1.791-4-4zM0 16c0-2.209 1.791-4 4-4s4 1.791 4 4c0 2.209-1.791 4-4 4s-4-1.791-4-4zM0 28c0-2.209 1.791-4 4-4s4 1.791 4 4c0 2.209-1.791 4-4 4s-4-1.791-4-4z"></path>
</symbol>
<symbol id="icon-camera" viewBox="0 0 32 32">
<path d="M27 17.047l-5-2.003v-4.008l5-2.004c0.553 0 1 0.449 1 1.002v6.012c0 0.553-0.447 1.001-1 1.001zM17.5 10.033c-2.485 0-4.5-2.019-4.5-4.509s2.015-4.509 4.5-4.509 4.5 2.019 4.5 4.509c0 2.491-2.015 4.509-4.5 4.509zM8.5 10.033c-2.485 0-4.5-2.019-4.5-4.509s2.015-4.509 4.5-4.509 4.5 2.019 4.5 4.509c0 2.491-2.015 4.509-4.5 4.509zM21 10.033v9.018h-5.582c-0.052 0.832-0.416 1.549-0.957 1.955h0.564l3.989 8.996h-0.994l-1.33-3h-2.66v4.998h-0.997v-4.998h-2.702l-1.351 3h-0.995l4.052-8.996h0.377c-0.541-0.406-0.905-1.123-0.957-1.955h-6.457v-9.018h16zM13.032 21.316c-0.041-0.010-0.079-0.031-0.119-0.045l-2.132 4.732h2.251v-4.687zM14.029 21.244v4.76h2.217l-2.126-4.795c-0.029 0.014-0.059 0.023-0.091 0.035z"></path>
</symbol>
<symbol viewBox="0 0 511.985 511.985" xmlns="http://www.w3.org/2000/svg" id="icon-meeting">
    <path d="M17.798 102.619C5.607 117.065-.781 135.717.168 154.734c1.054 21.123 11.046 40.918 27.414 54.311l7.196 5.888a226.727 226.727 0 0 0-3.764 41.06c0 124.35 100.632 225 225 225 13.805 0 27.574-1.279 41.061-3.764l5.888 7.196c26.405 32.274 74.283 36.916 106.429 9.788.067.068.129.139.197.207 23.393 23.393 61.458 23.394 84.853 0 23.394-23.394 23.394-61.459 0-84.853-.069-.069-.142-.132-.211-.2 27.002-31.996 22.653-79.886-9.783-106.425l-7.196-5.888a226.727 226.727 0 0 0 3.764-41.06c0-124.351-100.632-225-225-225a226.817 226.817 0 0 0-41.06 3.764l-5.888-7.196C195.676 11.194 175.88 1.202 154.758.148c-19.023-.947-37.671 5.439-52.115 17.63-.068-.069-.132-.142-.201-.211-23.394-23.394-61.459-23.394-84.853 0-23.448 23.448-23.451 61.402 0 84.853.067.068.14.131.209.199zm455.429 370.587c-11.697 11.697-30.729 11.697-42.427 0-11.697-11.697-11.697-30.729 0-42.426s30.729-11.697 42.427 0c11.697 11.697 11.697 30.729 0 42.426zm-4.455-80.399l-1.254 1.254c-20.016-5.321-42.263-.164-57.932 15.505s-20.826 37.916-15.505 57.932l-1.253 1.253c-18.706 18.706-49.646 17.456-66.648-3.324l-36.284-44.347a14.953 14.953 0 0 1 1.002-20.105l55.049-55.049c5.862-5.862 15.349-5.863 21.213 0 5.861 5.861 5.863 15.35 0 21.213l-45.447 45.447 27.684 33.843 23.221-18.995-10.496-12.83 26.251-26.251 26.252-26.251 12.83 10.495 18.995-23.22-33.843-27.684-15.433 15.433c-2.177-4.547-5.131-8.742-8.801-12.412s-7.865-6.624-12.412-8.801l25.034-25.034a14.953 14.953 0 0 1 20.105-1.003l44.347 36.284c20.475 16.751 22.31 47.663 3.325 66.647zM256.013 60.993c107.523 0 195 87.477 195 195 0 6.302-.32 12.591-.919 18.842l-9.996-8.178a44.86 44.86 0 0 0-60.315 3.008L269.686 379.762a44.858 44.858 0 0 0-3.008 60.315l8.178 9.996c-6.251.599-12.541.919-18.843.919-107.523 0-195-87.477-195-195 0-6.302.32-12.591.919-18.842l9.996 8.178c17.929 14.669 43.862 13.445 60.315-3.008L242.34 132.223a44.86 44.86 0 0 0 3.008-60.316l-8.178-9.996a197.942 197.942 0 0 1 18.843-.918zM153.261 30.109c12.86.641 24.433 6.483 32.586 16.448l36.284 44.347a14.953 14.953 0 0 1-1.002 20.105l-25.054 25.053a44.78 44.78 0 0 0-8.782-12.431 45.033 45.033 0 0 0-12.412-8.801l15.433-15.433-27.684-33.843-23.221 18.995 10.496 12.83-52.502 52.502-12.83-10.495-18.995 23.22 33.843 27.684 45.447-45.447c5.862-5.861 15.35-5.863 21.213 0 5.847 5.847 5.848 15.361.004 21.209l-55.052 55.052a14.953 14.953 0 0 1-20.105 1.003l-44.347-36.284c-9.965-8.154-15.807-19.726-16.448-32.587-1.121-22.491 13.88-34.57 14.378-35.315 20.738 5.513 42.737-.31 57.932-15.505 15.747-15.747 20.879-37.908 15.538-57.964.694-.463 12.898-15.456 35.28-14.343zM38.8 38.779c11.697-11.697 30.729-11.697 42.427 0 11.724 11.724 11.725 30.701 0 42.427-11.697 11.697-30.729 11.697-42.427 0-11.724-11.724-11.725-30.701 0-42.427z"></path>
    <path d="M234.8 340.846L340.866 234.78l-63.64-63.64L171.16 277.206zm63.64-106.066l-63.64 63.64-21.213-21.213 63.64-63.64z"></path>
  </symbol>
  <symbol xmlns="http://www.w3.org/2000/svg" viewBox="0 0 512 512" id="icon-report">
    <path d="M502 40h-27.414c-5.522 0-10 4.477-10 10s4.478 10 10 10H492v314H212.772V216.284c8.917-.501 17.718-3.869 24.891-10.158l26.303-23.063a30.394 30.394 0 0 0 10.307-21.858 30.39 30.39 0 0 0-8.963-22.442c-10.657-10.554-27.164-11.768-39.251-2.888l-11.764 8.643-1.57-1.574c.029-.311.048-.625.048-.943V60h181.822c5.522 0 10-4.477 10-10s-4.478-10-10-10H202.772c-5.522 0-10 4.477-10 10v72.938l-6.969-6.987c-12.488-12.521-27.959-20.96-44.809-24.712 7.925-9.092 12.742-20.962 12.742-33.942v-5.564C153.736 23.208 130.529 0 102.004 0 73.478 0 50.271 23.208 50.271 51.733v5.564c0 12.175 4.238 23.372 11.302 32.218C26.95 93.603 0 123.113 0 158.816v108.849c0 16.543 13.459 30.001 30.002 30.001 3.506 0 6.872-.61 10.002-1.721V347c0 5.523 4.478 10 10 10s10-4.477 10-10v-82.545h84V476c0 8.822-7.178 16-16 16s-16-7.178-16-16V328.584c0-5.523-4.478-10-10-10s-10 4.477-10 10V476c0 8.822-7.178 16-16 16s-16-7.178-16-16v-49c0-5.523-4.478-10-10-10s-10 4.477-10 10v49c0 19.851 16.149 36 36 36 10.214 0 19.441-4.283 26-11.139 6.559 6.856 15.786 11.139 26 11.139 19.851 0 36-16.149 36-36V256.127c0-.282-.02-.56-.042-.836.022-.276.042-.554.042-.836v-67.469l17.116 17.21a41.096 41.096 0 0 0 11.652 8.211V384c0 5.523 4.478 10 10 10H502c5.522 0 10-4.477 10-10V50c0-5.523-4.478-10-10-10zM70.271 51.733C70.271 34.235 84.506 20 102.004 20c17.497 0 31.732 14.235 31.732 31.733v5.564c0 17.291-13.904 31.386-31.117 31.717h-1.231c-17.214-.33-31.118-14.426-31.118-31.717v-5.564zm90.824 103.965a10.002 10.002 0 0 0-17.091 7.052v81.704h-84V183c0-5.523-4.478-10-10-10s-10 4.477-10 10v84.665c0 5.515-4.487 10.001-10.002 10.001S20 273.18 20 267.665V158.816c0-27.461 22.341-49.802 49.802-49.802h22.202V142c0 5.523 4.478 10 10 10s10-4.477 10-10v-32.986h8.887c19.183 0 37.207 7.479 50.753 21.061l34.563 34.653a10 10 0 0 0 13.001.997l18.692-13.733a10.246 10.246 0 0 1 13.336.981 10.19 10.19 0 0 1 3.046 7.625 10.191 10.191 0 0 1-3.502 7.427l-26.303 23.063c-8.442 7.403-21.258 6.965-29.177-.996l-34.205-34.394z"></path>
    <path d="M427.703 209.264h-48c-5.522 0-10 4.477-10 10v16.575h-38c-5.522 0-10 4.477-10 10v23.101h-38c-5.522 0-10 4.477-10 10V318h-19.964c-5.522 0-10 4.477-10 10s4.478 10 10 10h203.928c5.522 0 10-4.477 10-10s-4.478-10-10-10h-19.964v-98.736c0-5.523-4.477-10-10-10zm-134 79.675h28V318h-28v-29.061zm48-10v-23.101h28V318h-28v-39.061zm48 39.061v-88.737h28V318h-28zM50 397c2.64 0 5.21-1.07 7.069-2.93A10.034 10.034 0 0 0 60 387c0-2.63-1.061-5.21-2.931-7.07C55.21 378.07 52.63 377 50 377s-5.2 1.07-7.07 2.93A10.076 10.076 0 0 0 40 387c0 2.63 1.069 5.21 2.93 7.07S47.37 397 50 397zm360.586-284.729l-52.735 52.735-18.41-18.411a10.003 10.003 0 0 0-14.142 0l-48.667 48.667c-3.905 3.905-3.905 10.237 0 14.143 1.953 1.952 4.512 2.929 7.071 2.929s5.118-.977 7.071-2.929l41.596-41.596 18.41 18.411a10.003 10.003 0 0 0 14.142 0l59.807-59.807c.759 4.77 4.88 8.42 9.863 8.42 5.522 0 10-4.477 10-10v-22.426c0-5.523-4.478-10-10-10h-22.426c-5.522 0-10 4.477-10 10 .001 4.984 3.651 9.105 8.42 9.864zM434.59 60c2.63 0 5.21-1.07 7.07-2.93a10.08 10.08 0 0 0 2.93-7.07c0-2.63-1.07-5.21-2.93-7.07-1.86-1.86-4.44-2.93-7.07-2.93s-5.21 1.07-7.07 2.93a10.062 10.062 0 0 0-2.93 7.07c0 2.63 1.07 5.21 2.93 7.07 1.86 1.86 4.44 2.93 7.07 2.93z"></path>
  </symbol>
  <symbol xmlns="http://www.w3.org/2000/svg" viewBox="0 0 512 512" id="icon-classmates">
    <circle cx="139.691" cy="46.434" r="41.755"></circle>
    <path d="M268.897 275.556c-.329-.904-33.225-90.905-47.714-133.063-9.347-27.201-25.02-40.993-46.585-40.993h-3.248c5.378 5.221 9.48 11.748 11.769 19.073 10.487 3.63 18.04 13.598 18.04 25.304v60.934c14.372 40.119 29.668 81.966 29.894 82.581 3.821 10.45 15.388 15.825 25.84 12.004 10.45-3.82 15.825-15.389 12.004-25.84zM104.793 101.5c-21.562 0-37.236 13.792-46.584 40.992-14.488 42.156-47.384 132.16-47.715 133.064-3.821 10.45 1.553 22.02 12.003 25.84 10.442 3.82 22.018-1.547 25.84-12.004.225-.617 15.521-42.463 29.893-82.581v-60.934c0-11.705 7.554-21.673 18.04-25.304 2.289-7.325 6.392-13.852 11.77-19.073h-3.247zm114.838 226.845c-8.461-43.676-14.352-74.023-18.47-95.246v4.717c0 14.764-12.011 26.774-26.774 26.774h-69.38c-14.764 0-26.774-12.011-26.774-26.774v-4.725c-4.119 21.229-10.011 51.58-18.47 95.255-1.342 6.93 3.999 13.333 10.988 13.333h15.374v146.144c0 13.353 10.824 24.177 24.177 24.177s24.177-10.824 24.177-24.177V341.678h10.438v146.144c0 13.353 10.824 24.177 24.177 24.177s24.177-10.824 24.177-24.177V341.678h15.373c7.023 0 12.327-6.411 10.987-13.333z"></path>
    <path d="M174.385 134.117h-4.22a30.261 30.261 0 0 0-3.973-15.014c-5.244-9.22-15.153-15.456-26.497-15.456s-21.253 6.236-26.498 15.456a30.271 30.271 0 0 0-3.973 15.014h-4.22c-6.495 0-11.76 5.265-11.76 11.76v91.939c0 6.495 5.265 11.76 11.76 11.76h69.38c6.495 0 11.76-5.265 11.76-11.76v-91.938c.001-6.496-5.264-11.761-11.759-11.761zm-38.295-15.014h7.21c6.786 1.631 11.851 7.735 11.851 15.014h-30.912c0-7.28 5.065-13.384 11.851-15.014zm19.954 101.779h-32.697c-5.527 0-10.009-4.481-10.009-10.009 0-5.528 4.482-10.009 10.009-10.009h32.697c5.527 0 10.009 4.481 10.009 10.009 0 5.528-4.482 10.009-10.009 10.009z"></path>
    <circle cx="399.284" cy="42.139" r="42.139"></circle>
    <path d="M502.735 145.591c-.132-26.4-22.055-47.877-48.868-47.877h-26.473c7.129 5.621 12.549 13.316 15.318 22.178.094.033.185.074.279.108 11.252 3.827 19.502 14.76 19.078 27.325v147.747c0 11.23 9.104 20.333 20.333 20.333s20.333-9.104 20.333-20.333V145.591zm-68.756 118.318h-69.381v-.001a26.935 26.935 0 0 1-19.268-8.1v231.79c0 13.476 10.816 24.4 24.292 24.4s24.4-10.924 24.4-24.4V292.571h10.534V487.6c0 13.476 10.924 24.4 24.4 24.4s24.292-10.924 24.292-24.4V255.81a26.942 26.942 0 0 1-19.269 8.099zm-89.27-166.195c-26.814 0-48.736 21.477-48.868 47.877v149.481c0 11.229 9.104 20.333 20.333 20.333s20.333-9.104 20.333-20.333V149.73c-1.679-13.61 7.057-25.966 19.376-29.899 2.776-8.836 8.186-16.509 15.298-22.118h-26.472z"></path>
    <path d="M433.978 133.435h-4.22a30.27 30.27 0 0 0-3.972-15.014c-5.245-9.22-15.153-15.456-26.498-15.456-11.345-.001-21.253 6.236-26.498 15.456a30.271 30.271 0 0 0-3.973 15.014h-4.22c-6.495 0-11.76 5.265-11.76 11.76v91.939c0 6.495 5.265 11.76 11.76 11.76h69.38c6.495 0 11.76-5.265 11.76-11.76v-91.939c.001-6.495-5.264-11.76-11.759-11.76zm-38.294-15.014h7.208c6.787 1.63 11.852 7.734 11.852 15.014h-30.912c0-7.28 5.064-13.384 11.852-15.014zM415.636 220.2h-32.698c-5.528 0-10.009-4.481-10.009-10.009 0-5.528 4.481-10.009 10.009-10.009h32.698c5.528 0 10.009 4.481 10.009 10.009s-4.48 10.009-10.009 10.009z"></path>
  </symbol>
  <symbol xmlns="http://www.w3.org/2000/svg" viewBox="0 0 448 448" id="icon-fast-backward">
    <title></title>
    <path d="M436.75 35.25C443 29 448 31.25 448 40v368c0 8.75-5 11-11.25 4.75l-177.5-177.5c-1.5-1.5-2.5-3-3.25-4.75V408c0 8.75-5 11-11.25 4.75l-177.5-177.5c-1.5-1.5-2.5-3-3.25-4.75V400c0 8.75-7.25 16-16 16H16c-8.75 0-16-7.25-16-16V48c0-8.75 7.25-16 16-16h32c8.75 0 16 7.25 16 16v169.5c.75-1.75 1.75-3.25 3.25-4.75l177.5-177.5C251 29 256 31.25 256 40v177.5c.75-1.75 1.75-3.25 3.25-4.75z"></path>
  </symbol>
  <symbol xmlns="http://www.w3.org/2000/svg" viewBox="0 0 448 448" id="icon-fast-forward">
    <title></title>
    <path d="M11.25 412.75C5 419 0 416.75 0 408V40c0-8.75 5-11 11.25-4.75l177.5 177.5c1.5 1.5 2.5 3 3.25 4.75V40c0-8.75 5-11 11.25-4.75l177.5 177.5c1.5 1.5 2.5 3 3.25 4.75V48c0-8.75 7.25-16 16-16h32c8.75 0 16 7.25 16 16v352c0 8.75-7.25 16-16 16h-32c-8.75 0-16-7.25-16-16V230.5c-.75 1.75-1.75 3.25-3.25 4.75l-177.5 177.5C197 419 192 416.75 192 408V230.5c-.75 1.75-1.75 3.25-3.25 4.75z"></path>
  </symbol>
  <symbol xmlns="http://www.w3.org/2000/svg" viewBox="0 0 480 448" id="icon-money">
    <title></title>
    <path d="M192 288h96v-24h-32V152h-28.5l-37 34.25 19.25 20c6-5.25 9.75-8 13.75-14.25h.5v72h-32v24zm128-64c0 45.5-27.5 104-80 104s-80-58.5-80-104 27.5-104 80-104 80 58.5 80 104zm128 64V160c-35.25 0-64-28.75-64-64H96c0 35.25-28.75 64-64 64v128c35.25 0 64 28.75 64 64h288c0-35.25 28.75-64 64-64zm32-208v288c0 8.75-7.25 16-16 16H16c-8.75 0-16-7.25-16-16V80c0-8.75 7.25-16 16-16h448c8.75 0 16 7.25 16 16z"></path>
  </symbol>
  <symbol id="icon-checkmark" viewBox="0 0 32 32">
<path d="M16 3c-7.18 0-13 5.82-13 13s5.82 13 13 13 13-5.82 13-13-5.82-13-13-13zM23.258 12.307l-9.486 9.485c-0.238 0.237-0.623 0.237-0.861 0l-0.191-0.191-0.001 0.001-5.219-5.256c-0.238-0.238-0.238-0.624 0-0.862l1.294-1.293c0.238-0.238 0.624-0.238 0.862 0l3.689 3.716 7.756-7.756c0.238-0.238 0.624-0.238 0.862 0l1.294 1.294c0.239 0.237 0.239 0.623 0.001 0.862z"></path>
</symbol>
<symbol id="icon-checkmark2" viewBox="0 0 32 32">
<path d="M28.998 8.531l-2.134-2.134c-0.394-0.393-1.030-0.393-1.423 0l-12.795 12.795-6.086-6.13c-0.393-0.393-1.029-0.393-1.423 0l-2.134 2.134c-0.393 0.394-0.393 1.030 0 1.423l8.924 8.984c0.393 0.393 1.030 0.393 1.423 0l15.648-15.649c0.393-0.392 0.393-1.030 0-1.423z"></path>
</symbol>
<symbol id="icon-chat-3" viewBox="0 0 24 24">
<path d="M6.5 9c0.828 0 1.5 0.671 1.5 1.5s-0.672 1.5-1.5 1.5-1.5-0.671-1.5-1.5 0.672-1.5 1.5-1.5zM11.5 9c0.828 0 1.5 0.671 1.5 1.5s-0.672 1.5-1.5 1.5-1.5-0.671-1.5-1.5 0.672-1.5 1.5-1.5zM16.5 9c0.828 0 1.5 0.671 1.5 1.5s-0.672 1.5-1.5 1.5-1.5-0.671-1.5-1.5 0.672-1.5 1.5-1.5zM20 1h-17c-1.654 0-3 1.346-3 3v12c0 1.654 2 2 3 2v6l9-6h8c1.654 0 3-1.346 3-3v-11c0-1.654-1.346-3-3-3zM21 15c0 0.551-0.449 1-1 1h-9l-6 5v-5h-2c-0.551 0-1-0.449-1-1v-11c0-0.551 0.449-1 1-1h17c0.551 0 1 0.449 1 1v11z"></path>
</symbol>
<symbol id="icon-paperplane" viewBox="0 0 32 32">
<path d="M3.363 4.414l4.875 19.348 9.467-3.018-8.448-10.298 10.902 9.56 8.853-2.77-25.649-12.822zM18.004 27.586v-5.324l-3.116 0.926 3.116 4.398z"></path>
</symbol>
</defs>
</svg>